Coordinates
nRows=117
nColumns=2
inDegrees=yes
endheader
time	ankle_angle_r	
3.8125	 18.472399	
3.875	 18.499828	
3.9375	 18.441519	
4	 18.432617	
4.0625	 18.515633	
4.125	 18.578302	
4.1875	 18.569946	
4.25	 18.554688	
4.3125	 18.546877	
4.375	 18.501282	
4.4375	 18.555050	
4.5	 18.547421	
4.5625	 18.507822	
4.625	 18.539429	
4.6875	 18.583389	
4.75	 18.524170	
4.8125	 18.506369	
4.875	 18.554688	
4.9375	 18.566677	
5	 18.480574	
5.0625	 18.497648	
5.125	 18.579756	
5.1875	 18.524170	
5.25	 18.544516	
5.3125	 18.529074	
5.375	 18.452599	
5.4375	 18.545605	
5.5	 18.493652	
5.5625	 18.440973	
5.625	 18.524170	
5.6875	 18.543243	
5.75	 18.508911	
5.8125	 18.539429	
5.875	 18.371582	
5.9375	 18.460047	
6	 18.423172	
6.0625	 18.475668	
6.125	 18.501282	
6.1875	 18.434978	
6.25	 18.430437	
6.3125	 18.482389	
6.375	 18.432617	
6.4375	 18.417358	
6.5	 18.403553	
6.5625	 18.386841	
6.625	 18.475124	
6.6875	 18.509819	
6.75	 18.476940	
6.8125	 18.462589	
6.875	 18.402826	
6.9375	 18.417177	
7	 18.417358	
7.0625	 18.371763	
7.125	 18.463497	
7.1875	 18.416813	
7.25	 18.449329	
7.3125	 18.509819	
7.375	 18.386841	
7.4375	 18.357595	
7.5	 18.444969	
7.5625	 18.493652	
7.625	 18.420992	
7.6875	 18.489656	
7.75	 18.404280	
7.8125	 18.493652	
7.875	 18.414816	
7.9375	 18.478394	
8	 18.453690	
8.0625	 18.402100	
8.125	 18.432617	
8.1875	 18.413906	
8.25	 18.463135	
8.3125	 18.493652	
8.375	 18.413363	
8.4375	 18.432617	
8.5	 18.456594	
8.5625	 18.437159	
8.625	 18.350510	
8.6875	 18.504007	
8.75	 18.397013	
8.8125	 18.396832	
8.875	 18.508911	
8.9375	 18.432617	
9	 18.371582	
9.0625	 18.347059	
9.125	 18.356323	
9.1875	 18.398285	
9.25	 18.369402	
9.3125	 18.386841	
9.375	 18.400646	
9.4375	 18.349239	
9.5	 18.378849	
9.5625	 18.333616	
9.625	 18.424988	
9.6875	 18.485842	
9.75	 18.447876	
9.8125	 18.492563	
9.875	 18.431164	
9.9375	 18.408821	
10	 18.487112	
10.0625	 18.530527	
10.125	 18.493652	
10.1875	 18.539429	
10.25	 18.478394	
10.3125	 18.504915	
10.375	 18.503462	
10.4375	 18.417358	
10.5	 18.458048	
10.5625	 18.458231	
10.625	 18.443153	
10.6875	 18.498194	
10.75	 18.513271	
10.8125	 18.463135	
10.875	 18.528166	
10.9375	 18.371582	
11	 18.459501	
11.0625	 18.520718	
